<svg width="210" height="170" viewBox="0 0 210 170" fill="none" xmlns="http://www.w3.org/2000/svg">
<g opacity="0.2">
<path d="M52.1067 86.2528L37.2959 77.3606C37.1464 77.2706 36.9653 77.2569 36.8107 77.3238C36.6561 77.3907 36.5529 77.5293 36.5342 77.6905L35.4053 86.9879L21.4545 78.6123C21.305 78.5222 21.1239 78.5085 20.9693 78.5754C20.8168 78.6426 20.7115 78.7809 20.6928 78.9422L18.0109 101.053C17.9884 101.23 17.996 101.263 18.1498 101.374C18.3036 101.486 18.4294 101.361 18.5955 101.287L34.3076 94.4658L42.3706 90.9658L51.9275 86.8162C52.0958 86.743 52.2792 86.7342 52.2845 86.5544C52.292 86.375 52.2705 86.3511 52.1067 86.2528Z" fill="#84B5FF"/>
<path d="M39.4053 65.6833C40.7032 68.2174 39.6729 71.1769 37.1022 72.2918C34.5315 73.4066 31.3941 72.2575 30.0963 69.7233C28.7984 67.1892 29.8287 64.2297 32.3993 63.1149C34.9702 61.998 38.1075 63.1492 39.4053 65.6833Z" fill="#84B5FF"/>
<path d="M116.17 26.0788L124 27.5515V34.5713L116.17 35.9212C115.569 38.8052 114.427 41.5051 112.857 43.8983L117.348 50.4885L112.378 55.4588L105.886 50.869C103.493 52.4398 100.805 53.5689 97.9088 54.1702L96.4361 62H89.4163L88.0664 54.1702C85.1824 53.5689 82.4825 52.4276 80.0894 50.8567L73.5113 55.3484L68.5411 50.3781L73.1309 43.886C71.56 41.4929 70.431 38.793 69.8296 35.9089L61.9999 34.4363V27.4165L69.8296 26.0665C70.431 23.1702 71.5723 20.4826 73.1432 18.0895L68.6515 11.5115L73.6218 6.54117L80.1262 11.131C82.5193 9.56017 85.2192 8.41885 88.1032 7.82977L89.5759 0H96.5957L97.9456 7.82977C100.842 8.43112 103.53 9.57244 105.923 11.1433L112.501 6.65162L117.471 11.6219L112.881 18.114C114.44 20.4949 115.569 23.1825 116.17 26.0788ZM92.9999 16.4572C84.9737 16.4572 78.4694 22.9739 78.4694 30.9877C78.4694 39.0016 84.9737 45.5182 92.9999 45.5182C101.026 45.5182 107.53 39.0139 107.53 30.9877C107.53 22.9616 101.026 16.4572 92.9999 16.4572Z" fill="#84B5FF"/>
<path d="M162.145 158.754L142.869 148C141.623 147.256 141 146.106 141 144.551C141 142.928 141.656 141.778 142.967 141.101L162.145 130.246V134.203C162.145 134.473 162.047 134.845 161.85 135.319C161.653 135.725 161.358 136.029 160.965 136.232L147.295 143.942C146.77 144.348 146.77 144.754 147.295 145.159L162.145 153.377V158.754Z" fill="#84B5FF"/>
<path d="M178.564 127H182.4L172.86 160.681C172.598 161.56 172.008 162 171.09 162H168.631L178.564 127Z" fill="#84B5FF"/>
<path d="M188.591 130.246L207.768 141.101C209.145 141.845 209.834 142.995 209.834 144.551C209.834 146.106 209.145 147.222 207.768 147.899L188.591 158.754V154.797C188.591 154.594 188.656 154.256 188.787 153.783C188.984 153.309 189.279 152.971 189.672 152.768L203.441 145.159C203.966 144.754 203.966 144.348 203.441 143.942L188.591 135.623V130.246Z" fill="#84B5FF"/>
</g>
<path d="M125.876 19.0766L62.9111 45.2032C60.8593 46.0549 59.7857 48.0847 60.5185 49.7344L81.692 97.4067C82.4248 99.0571 84.6594 99.6417 86.678 98.7147L148.617 70.2791C150.46 69.4327 151.385 67.4753 150.687 65.904L130.527 20.5151C129.83 18.9446 127.749 18.2997 125.876 19.0766Z" fill="#276ED8"/>
<g opacity="0.5" filter="url(#filter0_d)">
<path d="M129.44 20.9693L149.614 66.3922C150.09 67.4634 149.463 68.794 148.207 69.3711L119.755 82.4095L86.2265 97.775C84.8526 98.4049 83.3057 98.0179 82.8069 96.8947L61.6515 49.2624C61.1534 48.1407 61.9103 46.7467 63.3067 46.1666L126.265 19.9925C127.324 19.5527 128.482 19.7775 129.117 20.4783C129.246 20.6231 129.359 20.7868 129.44 20.9693Z" fill="white"/>
</g>
<path d="M126.194 30.9263L126.844 32.3874L130.44 30.8599L129.792 29.4026L126.194 30.9263Z" fill="white"/>
<path d="M75.5283 55.4399L68.6967 58.3621L68 56.7931L74.8346 53.8784L75.5283 55.4399Z" fill="white"/>
<path d="M112.741 39.5215L79.9119 53.5654L79.2197 52.0077L112.066 38L112.741 39.5215Z" fill="white"/>
<path d="M88.596 55.9473L81.875 58.8371L81.1836 57.2802L87.9076 54.3972L88.596 55.9473Z" fill="white"/>
<path d="M125.216 40.2023L92.9088 54.093L92.2227 52.5474L124.546 38.6914L125.216 40.2023Z" fill="white"/>
<path d="M82.084 68.4445L75.269 71.4051L74.5723 69.8354L81.3896 66.8831L82.084 68.4445Z" fill="white"/>
<path d="M119.205 52.3201L86.4559 66.5458L85.7637 64.9881L118.529 50.7979L119.205 52.3201Z" fill="white"/>
<path d="M95.1244 67.8909L88.42 70.8176L87.7285 69.2608L94.436 66.3408L95.1244 67.8909Z" fill="white"/>
<path d="M131.653 51.9423L99.4254 66.0126L98.7393 64.467L130.983 50.4314L131.653 51.9423Z" fill="white"/>
<path d="M138.197 53.1311L111.892 64.7905L111.211 63.257L137.528 51.6262L138.197 53.1311Z" fill="white"/>
<path d="M88.5651 84.791L81.7951 87.852L81.0977 86.2822L87.8706 83.2288L88.5651 84.791Z" fill="white"/>
<path d="M125.441 68.1167L92.908 82.8267L92.2158 81.2698L124.765 66.5945L125.441 68.1167Z" fill="white"/>
<path d="M101.531 84.0731L94.8711 87.0994L94.1797 85.5417L100.843 82.5229L101.531 84.0731Z" fill="white"/>
<path d="M137.82 67.5829L105.804 82.1307L105.118 80.5859L137.149 66.0728L137.82 67.5829Z" fill="white"/>
<path d="M129.439 20.9692L149.614 66.3921C150.089 67.4632 149.462 68.7938 148.207 69.3709L119.756 82.4086L98.3262 34.1585L129.127 20.4729C129.258 20.6177 129.358 20.7867 129.439 20.9692Z" fill="white"/>
<path d="M125.876 19.076L62.9111 45.2026C60.8593 46.0542 59.7857 48.0841 60.5185 49.7337L61.4702 51.8768L131.434 22.5557L130.527 20.5152C129.83 18.944 127.749 18.2983 125.876 19.076Z" fill="#276ED8"/>
<path d="M66.7472 46.7992C66.9857 47.3371 66.6968 47.9729 66.1002 48.2203C65.5036 48.4678 64.8249 48.2324 64.5857 47.6938C64.3464 47.1553 64.6376 46.5186 65.235 46.272C65.8316 46.0253 66.5087 46.2622 66.7472 46.7992Z" fill="white"/>
<path d="M70.5248 45.2363C70.7626 45.7719 70.4759 46.4055 69.883 46.6514C69.2894 46.8974 68.6152 46.662 68.3767 46.1249C68.1382 45.5878 68.4264 44.9542 69.0208 44.709C69.6129 44.4646 70.2863 44.7007 70.5248 45.2363Z" fill="white"/>
<path d="M74.2786 43.6832C74.5156 44.2173 74.2312 44.8487 73.6421 45.0931C73.0522 45.3375 72.3811 45.1021 72.1433 44.5673C71.9055 44.0325 72.1915 43.4003 72.7813 43.1567C73.3719 42.913 74.0416 43.1484 74.2786 43.6832Z" fill="white"/>
<path opacity="0.35" d="M105.741 46.6907L132.145 35.465C132.235 35.4265 132.306 35.3541 132.341 35.2628C132.377 35.1715 132.374 35.0697 132.335 34.9799L128.635 26.65C128.554 26.4667 128.342 26.3822 128.157 26.4584L101.658 37.4707C101.57 37.5077 101.499 37.5793 101.464 37.6698C101.429 37.7604 101.431 37.8614 101.471 37.9512L105.268 46.5006C105.349 46.6832 105.56 46.7677 105.741 46.6907Z" fill="#84B5FF"/>
<path opacity="0.35" d="M133.961 39.1649L107.321 50.5988C107.233 50.6365 107.164 50.7082 107.13 50.7972C107.096 50.887 107.099 50.9865 107.138 51.0748L118.999 77.7815C119.039 77.8712 119.114 77.9421 119.205 77.9776C119.297 78.013 119.399 78.0108 119.488 77.9701L145.843 65.8949C146.023 65.8127 146.103 65.6022 146.022 65.4204L134.445 39.3549C134.363 39.1709 134.147 39.0857 133.961 39.1649Z" fill="#84B5FF"/>
<path d="M52.307 97L43 118L57 116.988L52.307 97Z" fill="#195BBE"/>
<path d="M162.884 95.9192V166.442L102.222 169.997L102.091 169.999L98.1519 129.89L102.082 88.208L102.223 88.2164L162.884 95.9192Z" fill="#276ED8"/>
<path d="M101.994 88.208V169.999L52.3379 164.404V96.8825L62.4509 95.1077L80.2766 91.9974L101.994 88.208Z" fill="#3E85EE"/>
<path d="M101.961 88.2095L129.122 113.551L181.998 116.522L162.62 95.9187L101.961 88.2095Z" fill="#195BBE"/>
<path d="M178.057 82.7625C177.528 83.0122 176.967 83.0936 176.433 83L125.037 73.9454C124.326 73.8204 123.732 73.4198 123.366 72.8171C122.98 72.1814 122.89 71.3693 123.12 70.5904L131.821 41.159L187.986 52.6519L179.793 80.7229C179.531 81.6101 178.882 82.373 178.057 82.7625Z" fill="#2DA531"/>
<path d="M132.658 42.5409L124.299 70.8203C124.021 71.7594 124.505 72.6447 125.378 72.7988L176.766 81.8531C177.553 81.9922 178.404 81.3836 178.667 80.4937L186.585 53.7057L132.658 42.5409Z" fill="white"/>
<path d="M188.103 49.0926L135.039 37.9346C134.143 37.7456 133.19 38.3516 132.915 39.2882L132.061 42.1789L188.282 53.7463L189.091 51.0076C189.352 50.1192 188.91 49.2625 188.103 49.0926Z" fill="#06B25F"/>
<path opacity="0.2" d="M138.156 70.0962L134.269 69.4394L140.475 48.948L144.339 49.6842L138.156 70.0962Z" fill="#A7CFFF"/>
<path d="M138.116 69.8728L134.238 69.2169L136.824 60.3601L140.697 61.0355L138.116 69.8728Z" fill="#84B5FF"/>
<path opacity="0.2" d="M148.651 72.2899L144.845 71.6475L150.985 51.3743L154.767 52.0948L148.651 72.2899Z" fill="#A7CFFF"/>
<path d="M148.532 72.2901L144.73 71.6479L148.574 58.5834L152.357 59.2873L148.532 72.2901Z" fill="#84B5FF"/>
<path opacity="0.2" d="M158.92 74.4383L155.194 73.8089L161.27 53.7499L164.972 54.4555L158.92 74.4383Z" fill="#A7CFFF"/>
<path d="M158.966 74.1081L155.242 73.4788L160.432 56.3397L164.136 57.0348L158.966 74.1081Z" fill="#84B5FF"/>
<path opacity="0.2" d="M168.978 76.5423L165.33 75.9251L171.342 56.076L174.968 56.7667L168.978 76.5423Z" fill="#A7CFFF"/>
<path d="M168.74 76.2008L165.106 75.5847L167.186 68.7062L170.813 69.3477L168.74 76.2008Z" fill="#84B5FF"/>
<defs>
<filter id="filter0_d" x="49.498" y="11.7668" width="112.275" height="102.31" filterUnits="userSpaceOnUse" color-interpolation-filters="sRGB">
<feFlood flood-opacity="0" result="BackgroundImageFix"/>
<feColorMatrix in="SourceAlpha" type="matrix" values="0 0 0 0 0 0 0 0 0 0 0 0 0 0 0 0 0 0 127 0" result="hardAlpha"/>
<feOffset dy="4"/>
<feGaussianBlur stdDeviation="6"/>
<feColorMatrix type="matrix" values="0 0 0 0 0.160784 0 0 0 0 0.0941176 0 0 0 0 0.435294 0 0 0 0.15 0"/>
<feBlend mode="normal" in2="BackgroundImageFix" result="effect1_dropShadow"/>
<feBlend mode="normal" in="SourceGraphic" in2="effect1_dropShadow" result="shape"/>
</filter>
</defs>
</svg>
