<svg width="541" height="395" viewBox="0 0 541 395" fill="none" xmlns="http://www.w3.org/2000/svg">
<path opacity="0.04" d="M185.318 364.822C284.482 394.608 444.712 365.056 498.084 306.573C551.456 248.09 494.242 178.007 454.934 151.513C442.704 143.316 429.021 137.248 419.036 126.103C397.235 101.697 389.383 62.9501 362.308 45.6071C338.89 30.5869 311.519 43.9184 285.594 34.9589C274.28 31.124 255.679 15.0617 236.563 11.5646C194.284 3.83013 92.2487 43.3048 80.8489 84.0817C69.449 124.859 49.5296 324.035 185.318 364.822Z" fill="#276ED8"/>
<path opacity="0.2" d="M326.75 173.199L339 170.895V159.913L326.75 157.801C325.809 153.289 324.024 149.065 321.566 145.32L328.593 135.01L320.817 127.234L310.66 134.415C306.916 131.957 302.711 130.191 298.18 129.25L295.876 117H284.893L282.781 129.25C278.269 130.191 274.045 131.976 270.301 134.434L260.01 127.407L252.234 135.183L259.415 145.34C256.957 149.084 255.191 153.308 254.25 157.82L242 160.124V171.106L254.25 173.219C255.191 177.75 256.976 181.955 259.434 185.699L252.407 195.99L260.183 203.766L270.359 196.585C274.103 199.043 278.327 200.829 282.839 201.75L285.143 214H296.126L298.238 201.75C302.769 200.809 306.974 199.024 310.718 196.566L321.009 203.593L328.785 195.817L321.605 185.66C324.043 181.935 325.809 177.731 326.75 173.199ZM290.5 188.252C277.943 188.252 267.767 178.057 267.767 165.519C267.767 152.981 277.943 142.786 290.5 142.786C303.057 142.786 313.233 152.962 313.233 165.519C313.233 178.076 303.057 188.252 290.5 188.252Z" fill="#84B5FF"/>
<path d="M62.56 125.32V227.79C62.56 232.89 66.7 237.03 71.8 237.03H198.6C203.7 237.03 207.84 232.89 207.84 227.79V125.32C207.84 120.22 203.7 116.08 198.6 116.08H71.79C66.69 116.09 62.56 120.22 62.56 125.32ZM198.73 232.29H135.2L72 232C70.11 232 68.25 230.76 68.25 228.87V124.24C68.25 122.35 69.78 120.82 71.67 120.82H198.73C200.62 120.82 202.15 122.35 202.15 124.24V228.87C202.15 230.76 200.62 232.29 198.73 232.29Z" fill="#66D6A0"/>
<path d="M340.91 235C329.36 235 320 244.36 320 255.91C320 267.46 329.36 276.82 340.91 276.82C352.46 276.82 361.82 267.46 361.82 255.91C361.82 244.36 352.46 235 340.91 235ZM340.91 271.61C332.23 271.61 325.2 264.58 325.2 255.9C325.2 247.22 332.23 240.19 340.91 240.19C349.59 240.19 356.62 247.22 356.62 255.9C356.62 264.58 349.59 271.61 340.91 271.61Z" fill="#66D6A0"/>
<path d="M295.67 173.81V306.8C295.67 310.22 292.9 312.99 289.48 312.99H86.68C83.26 312.99 80.49 310.22 80.49 306.8V173.81C80.49 165.92 86.89 159.51 94.79 159.51H281.37C289.27 159.51 295.67 165.92 295.67 173.81Z" fill="white" stroke="#84B5FF" stroke-miterlimit="10"/>
<path d="M295.67 173.81V174.41H80.49V173.81C80.49 165.92 86.89 159.51 94.79 159.51H281.37C289.27 159.51 295.67 165.92 295.67 173.81Z" fill="#84B5FF"/>
<path opacity="0.2" d="M213.55 185.04H202.17C201.16 185.04 200.34 184.22 200.34 183.21C200.34 182.2 201.16 181.38 202.17 181.38H213.55C214.56 181.38 215.38 182.2 215.38 183.21C215.38 184.22 214.56 185.04 213.55 185.04Z" fill="#276ED8"/>
<path opacity="0.2" d="M235.06 185.04H223.68C222.67 185.04 221.85 184.22 221.85 183.21C221.85 182.2 222.67 181.38 223.68 181.38H235.06C236.07 181.38 236.89 182.2 236.89 183.21C236.9 184.22 236.08 185.04 235.06 185.04Z" fill="#276ED8"/>
<path opacity="0.2" d="M256.91 185.04H245.53C244.52 185.04 243.7 184.22 243.7 183.21C243.7 182.2 244.52 181.38 245.53 181.38H256.91C257.92 181.38 258.74 182.2 258.74 183.21C258.74 184.22 257.92 185.04 256.91 185.04Z" fill="#276ED8"/>
<path opacity="0.2" d="M278.42 185.04H267.04C266.03 185.04 265.21 184.22 265.21 183.21C265.21 182.2 266.03 181.38 267.04 181.38H278.42C279.43 181.38 280.25 182.2 280.25 183.21C280.26 184.22 279.44 185.04 278.42 185.04Z" fill="#276ED8"/>
<path opacity="0.2" d="M255.72 213.58H207.9C206.97 213.58 206.22 212.83 206.22 211.9V206.13C206.22 205.2 206.97 204.45 207.9 204.45H255.72C256.65 204.45 257.4 205.2 257.4 206.13V211.9C257.4 212.82 256.65 213.58 255.72 213.58Z" fill="#276ED8"/>
<path opacity="0.2" d="M242.07 224.6H207.84C206.94 224.6 206.22 223.87 206.22 222.98C206.22 222.08 206.95 221.36 207.84 221.36H242.07C242.97 221.36 243.69 222.09 243.69 222.98C243.69 223.87 242.97 224.6 242.07 224.6Z" fill="#276ED8"/>
<path opacity="0.2" d="M276.32 232.44H207.84C206.94 232.44 206.22 231.71 206.22 230.82C206.22 229.92 206.95 229.2 207.84 229.2H276.32C277.22 229.2 277.94 229.93 277.94 230.82C277.94 231.71 277.22 232.44 276.32 232.44Z" fill="#276ED8"/>
<path opacity="0.2" d="M276.32 240.28H207.84C206.94 240.28 206.22 239.55 206.22 238.66C206.22 237.76 206.95 237.04 207.84 237.04H276.32C277.22 237.04 277.94 237.77 277.94 238.66C277.94 239.55 277.22 240.28 276.32 240.28Z" fill="#276ED8"/>
<path opacity="0.2" d="M276.099 248.24H207.619C206.719 248.24 205.999 247.51 205.999 246.62C205.999 245.72 206.729 245 207.619 245H276.099C276.999 245 277.719 245.73 277.719 246.62C277.719 247.51 276.999 248.24 276.099 248.24Z" fill="#276ED8"/>
<path opacity="0.1" d="M295.67 284.34V306.8C295.67 310.22 292.9 312.99 289.48 312.99H86.68C83.26 312.99 80.49 310.22 80.49 306.8V284.34H295.67Z" fill="#84B5FF"/>
<path d="M262.99 167.65C262.99 168.68 262.16 169.51 261.13 169.51C260.1 169.51 259.27 168.68 259.27 167.65C259.27 166.62 260.1 165.79 261.13 165.79C262.15 165.79 262.99 166.62 262.99 167.65Z" fill="#84B5FF"/>
<path d="M273.17 167.65C273.17 168.68 272.34 169.51 271.31 169.51C270.28 169.51 269.45 168.68 269.45 167.65C269.45 166.62 270.28 165.79 271.31 165.79C272.33 165.79 273.17 166.62 273.17 167.65Z" fill="#84B5FF"/>
<path d="M282.9 167.65C282.9 168.68 282.07 169.51 281.04 169.51C280.01 169.51 279.18 168.68 279.18 167.65C279.18 166.62 280.01 165.79 281.04 165.79C282.07 165.79 282.9 166.62 282.9 167.65Z" fill="#84B5FF"/>
<path opacity="0.1" d="M296 174.255V306.829C296 310.239 293.232 313 289.815 313H87.1848C83.7677 313 81 310.239 81 306.829V174.255C81 166.39 87.3946 160 95.288 160H281.712C289.605 160 296 166.39 296 174.255Z" stroke="#276ED8" stroke-miterlimit="10"/>
<g filter="url(#filter0_d)">
<path d="M187.63 191.58V253.43C187.63 254.86 186.47 256.01 185.05 256.01H102.58C101.16 256.01 100 254.86 100 253.43V191.58C100 190.15 101.16 189 102.58 189H185.05C186.48 189.01 187.63 190.16 187.63 191.58Z" fill="#06B25F"/>
</g>
<path d="M187.63 230.99V253.43C187.63 254.86 186.47 256.01 185.05 256.01H102.58C101.16 256.01 100 254.86 100 253.43V231.84C100 231.84 114.07 207.58 124.05 207.58C136.49 207.58 143.56 235.89 149.74 235.89C155.92 235.89 163.97 216.42 172.15 216.42C177.07 216.41 183.37 224.5 187.63 230.99Z" fill="#66D6A0"/>
<path d="M176.38 202.87C176.38 206.02 173.82 208.58 170.67 208.58C167.52 208.58 164.96 206.02 164.96 202.87C164.96 199.72 167.52 197.16 170.67 197.16C173.83 197.17 176.38 199.72 176.38 202.87Z" fill="#66D6A0"/>
<g filter="url(#filter1_d)">
<path d="M243.88 104.01V146.38C243.88 148.6 242.08 150.39 239.87 150.39H177.87C175.65 150.39 173.86 148.59 173.86 146.38V104.01C173.86 101.79 175.66 100 177.87 100H239.87C242.08 100 243.88 101.8 243.88 104.01Z" fill="#84B5FF"/>
</g>
<path d="M243.88 140.72V146.39C243.88 148.61 242.08 150.4 239.87 150.4H177.87C175.65 150.4 173.86 148.6 173.86 146.39V140.72H243.88Z" fill="#276ED8"/>
<path opacity="0.8" d="M211.03 146.03C211.03 146.5 211.17 146.93 211.42 147.3H180.1C179.4 147.3 178.83 146.74 178.83 146.03C178.83 145.33 179.4 144.76 180.1 144.76H211.42C211.18 145.13 211.03 145.56 211.03 146.03Z" fill="#84B5FF"/>
<path d="M221.86 146.03C221.86 146.73 221.29 147.3 220.59 147.3H211.43C211.18 146.93 211.04 146.5 211.04 146.03C211.04 145.56 211.18 145.13 211.43 144.76H220.59C221.28 144.77 221.86 145.34 221.86 146.03Z" fill="#84B5FF"/>
<path d="M215.53 146.03C215.53 146.5 215.39 146.93 215.14 147.3C214.74 147.89 214.06 148.28 213.28 148.28C212.51 148.28 211.83 147.89 211.43 147.3C211.18 146.93 211.04 146.5 211.04 146.03C211.04 145.56 211.18 145.13 211.43 144.76C211.83 144.17 212.51 143.78 213.28 143.78C214.06 143.78 214.74 144.17 215.14 144.76C215.38 145.13 215.53 145.56 215.53 146.03Z" fill="white"/>
<path d="M214.38 146.03C214.38 146.64 213.89 147.13 213.28 147.13C212.67 147.13 212.18 146.64 212.18 146.03C212.18 145.42 212.67 144.93 213.28 144.93C213.89 144.93 214.38 145.42 214.38 146.03Z" fill="#84B5FF"/>
<path d="M231.3 147.15V145.04C231.3 144.76 231.59 144.58 231.84 144.71L233.95 145.77C234.22 145.91 234.22 146.3 233.95 146.43L231.84 147.49C231.59 147.61 231.3 147.43 231.3 147.15Z" fill="#84B5FF"/>
<path d="M236.99 146.74V145.45C236.99 145.28 237.13 145.17 237.25 145.25L238.27 145.9C238.4 145.98 238.4 146.22 238.27 146.31L237.25 146.96C237.13 147.02 236.99 146.91 236.99 146.74Z" fill="#84B5FF"/>
<path d="M238.37 146.74V145.45C238.37 145.28 238.51 145.17 238.63 145.25L239.65 145.9C239.78 145.98 239.78 146.22 239.65 146.31L238.63 146.96C238.51 147.02 238.37 146.91 238.37 146.74Z" fill="#84B5FF"/>
<path d="M228.7 146.74V145.45C228.7 145.28 228.56 145.17 228.44 145.25L227.42 145.9C227.29 145.98 227.29 146.22 227.42 146.31L228.44 146.96C228.56 147.02 228.7 146.91 228.7 146.74Z" fill="#84B5FF"/>
<path d="M227.32 146.74V145.45C227.32 145.28 227.18 145.17 227.06 145.25L226.04 145.9C225.91 145.98 225.91 146.22 226.04 146.31L227.06 146.96C227.18 147.02 227.32 146.91 227.32 146.74Z" fill="#84B5FF"/>
<path d="M221.009 123.875C222.602 117.169 218.456 110.441 211.749 108.849C205.043 107.257 198.315 111.403 196.723 118.109C195.131 124.816 199.277 131.543 205.983 133.135C212.69 134.727 219.417 130.582 221.009 123.875Z" fill="#FBF8FF"/>
<path d="M205.57 124.84V117.16C205.57 116.31 206.51 115.8 207.22 116.26L213.12 120.1C213.77 120.52 213.77 121.47 213.12 121.89L207.22 125.73C206.51 126.2 205.57 125.69 205.57 124.84Z" fill="#276ED8"/>
<g filter="url(#filter2_d)">
<path d="M113.918 312.08L122 310.56V303.314L113.918 301.92C113.297 298.943 112.119 296.156 110.497 293.686L115.134 286.883L110.003 281.752L103.302 286.49C100.831 284.869 98.057 283.703 95.0673 283.082L93.5471 275H86.3008L84.9074 283.082C81.9303 283.703 79.1433 284.881 76.673 286.503L69.8828 281.866L64.7522 286.997L69.4901 293.698C67.8686 296.169 66.7031 298.956 66.0823 301.933L58 303.453V310.699L66.0823 312.093C66.7031 315.082 67.8812 317.857 69.5028 320.327L64.8662 327.117L69.9968 332.248L76.711 327.51C79.1813 329.131 81.9683 330.31 84.9454 330.918L86.4655 339H93.7118L95.1053 330.918C98.095 330.297 100.869 329.119 103.34 327.497L110.13 332.134L115.26 327.003L110.523 320.302C112.131 317.844 113.297 315.07 113.918 312.08ZM90 322.012C81.715 322.012 75.0008 315.285 75.0008 307.013C75.0008 298.74 81.715 292.013 90 292.013C98.285 292.013 104.999 298.728 104.999 307.013C104.999 315.298 98.285 322.012 90 322.012Z" fill="#84B5FF"/>
</g>
<g filter="url(#filter3_d)">
<path d="M47.687 273.322L53.5437 275.375L56.2811 270.649L51.5225 266.688C52.2387 264.508 52.5252 262.233 52.3978 260.022L58 257.333L56.5835 252.051L50.4244 252.623C49.4217 250.635 48.0371 248.821 46.3342 247.294L48.3873 241.439L43.6605 238.702L39.6976 243.459C37.5172 242.743 35.2414 242.457 33.0292 242.584L30.3395 237L25.0557 238.416L25.6287 244.589C23.6393 245.591 21.8249 246.975 20.2971 248.678L14.4403 246.625L11.7029 251.351L16.4615 255.312C15.7454 257.508 15.4589 259.751 15.5862 261.978L10 264.667L11.4164 269.949L17.5915 269.377C18.5941 271.365 19.9629 273.179 21.6817 274.706L19.6286 280.561L24.3554 283.298L28.3183 278.541C30.5146 279.257 32.7586 279.543 34.9868 279.416L37.6764 285L42.9602 283.584L42.3873 277.411C44.3448 276.425 46.1591 275.056 47.687 273.322ZM28.3183 270.793C22.9072 267.674 21.061 260.753 24.1804 255.344C27.2997 249.935 34.2228 248.089 39.6339 251.207C45.0451 254.326 46.8912 261.247 43.7719 266.656C40.6525 272.065 33.7295 273.911 28.3183 270.793Z" fill="#84B5FF"/>
</g>
<rect x="79" y="232" width="21" height="5" fill="#66D6A0"/>
<g clip-path="url(#clip0)">
<path d="M165.365 327.007L175.615 276.967C177.65 267.033 187.125 260.924 196.509 263.652L200.75 264.884C202.273 265.327 203.849 265.553 205.436 265.556L214.905 265.576L253.868 265.661L264.13 265.683C265.883 265.687 267.632 265.456 269.332 264.994L274.113 263.695C284.952 260.751 296.268 267.445 298.75 278.452L311.533 335.156C313.671 344.639 308.296 353.703 299.066 356.305C288.799 359.2 277.707 352.761 274.881 342.434L270.492 326.397C269.581 323.07 266.588 320.66 263.192 320.503L206.289 317.877C203.212 317.735 200.528 319.758 199.716 322.817L195.835 337.441C193.364 346.754 183.868 351.261 175.358 347.299C167.925 343.84 163.688 335.193 165.365 327.007Z" fill="url(#paint0_linear)"/>
<path opacity="0.3" d="M215.231 291.952L246.928 292.839C249.75 292.918 252.048 290.304 252.048 287.001V265.671L210.456 265.568V286.07C210.456 289.245 212.589 291.878 215.231 291.952Z" fill="url(#paint1_linear)"/>
<path d="M257.699 286.868C257.699 296.139 265.264 303.901 274.723 304.209C284.327 304.522 292.22 297.056 292.22 287.529C292.22 278.001 284.327 270.234 274.723 270.179C265.263 270.125 257.699 277.597 257.699 286.868Z" fill="url(#paint2_linear)"/>
<path d="M238.39 308.931C238.39 316.425 244.4 322.791 251.898 323.154C259.487 323.523 265.707 317.615 265.707 309.955C265.707 302.294 259.487 295.921 251.898 295.72C244.401 295.522 238.39 301.438 238.39 308.931Z" fill="#68A4FF"/>
<path d="M240.994 309.029C240.994 315.078 245.852 320.207 251.898 320.487C258.004 320.771 262.998 316.01 262.998 309.853C262.998 303.696 258.004 298.562 251.898 298.387C245.852 298.215 240.994 302.979 240.994 309.029Z" fill="#4389F2"/>
<path d="M244.616 309.205C244.616 312.607 247.348 315.491 250.748 315.649C254.182 315.808 256.99 313.132 256.99 309.67C256.99 306.207 254.182 303.32 250.748 303.222C247.348 303.124 244.616 305.804 244.616 309.205Z" fill="#276ED8"/>
<path d="M198.16 307.257C198.16 314.478 203.739 320.601 210.696 320.939C217.735 321.28 223.501 315.582 223.501 308.206C223.501 300.831 217.735 294.701 210.696 294.515C203.739 294.331 198.16 300.037 198.16 307.257Z" fill="#68A4FF"/>
<path d="M200.576 307.347C200.576 313.175 205.086 318.109 210.696 318.369C216.36 318.631 220.99 314.04 220.99 308.111C220.99 302.183 216.359 297.245 210.696 297.083C205.086 296.923 200.576 301.519 200.576 307.347Z" fill="#4389F2"/>
<path d="M202.913 307.499C202.913 310.9 205.645 313.784 209.045 313.943C212.479 314.102 215.287 311.425 215.287 307.963C215.287 304.501 212.479 301.614 209.045 301.516C205.645 301.418 202.913 304.098 202.913 307.499Z" fill="#276ED8"/>
<path d="M257.694 276.729C258.858 276.741 259.803 275.808 259.803 274.643V270.938C259.803 269.773 258.858 268.825 257.694 268.82C256.533 268.815 255.593 269.75 255.593 270.911V274.605C255.593 275.765 256.533 276.716 257.694 276.729Z" fill="#5483FC"/>
<path d="M206.548 276.108C207.61 276.12 208.47 275.228 208.47 274.117V270.578C208.47 269.466 207.609 268.56 206.548 268.555C205.49 268.55 204.632 269.445 204.632 270.553V274.079C204.632 275.188 205.49 276.097 206.548 276.108Z" fill="url(#paint3_linear)"/>
<path d="M272.913 274.867L276.538 274.901C277.607 274.911 278.474 275.773 278.474 276.825V280.963C278.474 281.338 278.362 281.703 278.151 282.012L276.511 284.416C276.153 284.941 275.549 285.249 274.903 285.238L274.543 285.231C273.897 285.22 273.296 284.891 272.939 284.355L271.313 281.908C271.105 281.594 270.993 281.228 270.993 280.856V276.743C270.994 275.697 271.852 274.857 272.913 274.867Z" fill="url(#paint4_linear)"/>
<path d="M272.913 299.451L276.538 299.556C277.607 299.587 278.474 298.759 278.474 297.706V293.569C278.474 293.194 278.362 292.825 278.151 292.508L276.511 290.04C276.153 289.501 275.549 289.169 274.903 289.156L274.543 289.149C273.897 289.135 273.296 289.441 272.939 289.964L271.313 292.348C271.105 292.653 270.993 293.015 270.993 293.388V297.501C270.994 298.547 271.852 299.42 272.913 299.451Z" fill="url(#paint5_linear)"/>
<path d="M287.332 285.63V289.239C287.332 290.299 286.452 291.139 285.369 291.116L281.128 291.023C280.745 291.014 280.371 290.895 280.052 290.68L277.575 289.013C277.035 288.649 276.71 288.047 276.71 287.409V287.054C276.71 286.416 277.035 285.826 277.575 285.483L280.052 283.911C280.371 283.708 280.745 283.603 281.128 283.61L285.369 283.679C286.453 283.697 287.332 284.57 287.332 285.63Z" fill="url(#paint6_linear)"/>
<path d="M262.361 285.187V288.727C262.361 289.766 263.207 290.628 264.253 290.651L268.382 290.742C268.758 290.75 269.125 290.648 269.438 290.449L271.882 288.896C272.418 288.555 272.741 287.969 272.741 287.333V286.979C272.741 286.343 272.418 285.744 271.882 285.382L269.438 283.736C269.125 283.525 268.758 283.409 268.382 283.402L264.253 283.336C263.207 283.319 262.361 284.148 262.361 285.187Z" fill="url(#paint7_linear)"/>
<path d="M272.103 275.047L275.729 275.082C276.797 275.092 277.665 275.953 277.665 277.006V281.143C277.665 281.518 277.553 281.883 277.342 282.192L275.702 284.596C275.344 285.121 274.74 285.43 274.094 285.418L273.734 285.412C273.088 285.4 272.487 285.071 272.13 284.535L270.504 282.089C270.295 281.774 270.184 281.409 270.184 281.036V276.924C270.185 275.877 271.043 275.037 272.103 275.047Z" fill="#5483FC"/>
<path d="M272.103 299.631L275.729 299.736C276.797 299.767 277.665 298.939 277.665 297.886V293.749C277.665 293.374 277.553 293.005 277.342 292.688L275.702 290.22C275.344 289.681 274.74 289.35 274.094 289.336L273.734 289.329C273.088 289.315 272.487 289.621 272.13 290.144L270.504 292.528C270.295 292.834 270.184 293.195 270.184 293.568V297.681C270.185 298.727 271.043 299.6 272.103 299.631Z" fill="#5483FC"/>
<path d="M286.523 285.81V289.42C286.523 290.48 285.643 291.32 284.56 291.296L280.319 291.203C279.936 291.194 279.562 291.075 279.243 290.86L276.766 289.193C276.226 288.829 275.901 288.227 275.901 287.589V287.234C275.901 286.597 276.226 286.007 276.766 285.663L279.243 284.091C279.562 283.888 279.936 283.783 280.319 283.79L284.56 283.859C285.644 283.877 286.523 284.75 286.523 285.81Z" fill="#5483FC"/>
<path d="M261.551 285.367V288.907C261.551 289.946 262.398 290.808 263.444 290.831L267.573 290.922C267.949 290.93 268.316 290.829 268.629 290.629L271.073 289.076C271.609 288.735 271.931 288.149 271.931 287.513V287.159C271.931 286.523 271.609 285.924 271.073 285.562L268.629 283.916C268.316 283.705 267.949 283.589 267.573 283.583L263.444 283.516C262.398 283.499 261.551 284.328 261.551 285.367Z" fill="#5483FC"/>
<path d="M204.986 285.765C204.986 294.607 198.185 301.553 189.9 301.283C181.732 301.016 175.194 293.815 175.194 285.194C175.194 276.574 181.732 269.623 189.9 269.669C198.185 269.716 204.986 276.922 204.986 285.765Z" fill="url(#paint8_linear)"/>
<path d="M186.119 275.506C186.119 277.723 187.809 279.544 189.901 279.574C192 279.604 193.708 277.819 193.708 275.587C193.708 273.356 192 271.535 189.901 271.52C187.809 271.505 186.119 273.29 186.119 275.506Z" fill="url(#paint9_linear)"/>
<path d="M186.119 295.3C186.119 297.516 187.809 299.366 189.901 299.431C192 299.496 193.708 297.741 193.708 295.51C193.708 293.278 192 291.429 189.901 291.378C187.809 291.327 186.119 293.083 186.119 295.3Z" fill="url(#paint10_linear)"/>
<path d="M199.331 281.597C197.206 281.564 195.488 283.348 195.488 285.582C195.488 287.817 197.206 289.667 199.331 289.715C201.464 289.764 203.199 287.98 203.199 285.73C203.199 283.481 201.464 281.631 199.331 281.597Z" fill="url(#paint11_linear)"/>
<path d="M180.62 281.303C178.561 281.27 176.897 283.027 176.897 285.227C176.897 287.426 178.561 289.246 180.62 289.293C182.686 289.34 184.367 287.583 184.367 285.37C184.367 283.156 182.686 281.335 180.62 281.303Z" fill="url(#paint12_linear)"/>
<path d="M185.31 275.687C185.31 277.903 187 279.725 189.091 279.754C191.19 279.784 192.898 277.999 192.898 275.767C192.898 273.536 191.19 271.715 189.091 271.7C187 271.685 185.31 273.47 185.31 275.687Z" fill="#5483FC"/>
<path d="M185.31 295.48C185.31 297.697 187 299.547 189.091 299.612C191.19 299.676 192.898 297.921 192.898 295.69C192.898 293.459 191.19 291.609 189.091 291.558C187 291.507 185.31 293.264 185.31 295.48Z" fill="#5483FC"/>
<path d="M198.522 281.777C196.397 281.744 194.679 283.528 194.679 285.763C194.679 287.997 196.397 289.847 198.522 289.896C200.655 289.944 202.39 288.16 202.39 285.911C202.39 283.661 200.655 281.811 198.522 281.777Z" fill="#5483FC"/>
<path d="M179.811 281.483C177.752 281.45 176.088 283.207 176.088 285.407C176.088 287.606 177.752 289.426 179.811 289.473C181.877 289.52 183.557 287.763 183.557 285.55C183.557 283.337 181.876 281.515 179.811 281.483Z" fill="#5483FC"/>
<path d="M242.3 346.18H213.09C211.94 346.18 211 345.25 211 344.09C211 342.94 211.93 342 213.09 342H242.3C243.45 342 244.39 342.93 244.39 344.09C244.39 345.24 243.45 346.18 242.3 346.18Z" fill="#66D6A0"/>
<path d="M242.3 356.61H213.09C211.94 356.61 211 355.68 211 354.52C211 353.37 211.93 352.43 213.09 352.43H242.3C243.45 352.43 244.39 353.36 244.39 354.52C244.39 355.67 243.45 356.61 242.3 356.61Z" fill="#66D6A0"/>
</g>
<defs>
<filter id="filter0_d" x="90" y="183" width="107.63" height="87.01" filterUnits="userSpaceOnUse" color-interpolation-filters="sRGB">
<feFlood flood-opacity="0" result="BackgroundImageFix"/>
<feColorMatrix in="SourceAlpha" type="matrix" values="0 0 0 0 0 0 0 0 0 0 0 0 0 0 0 0 0 0 127 0" result="hardAlpha"/>
<feOffset dy="4"/>
<feGaussianBlur stdDeviation="5"/>
<feColorMatrix type="matrix" values="0 0 0 0 0.0901961 0 0 0 0 0.0392157 0 0 0 0 0.396078 0 0 0 0.25 0"/>
<feBlend mode="normal" in2="BackgroundImageFix" result="effect1_dropShadow"/>
<feBlend mode="normal" in="SourceGraphic" in2="effect1_dropShadow" result="shape"/>
</filter>
<filter id="filter1_d" x="163.86" y="94" width="90.02" height="70.39" filterUnits="userSpaceOnUse" color-interpolation-filters="sRGB">
<feFlood flood-opacity="0" result="BackgroundImageFix"/>
<feColorMatrix in="SourceAlpha" type="matrix" values="0 0 0 0 0 0 0 0 0 0 0 0 0 0 0 0 0 0 127 0" result="hardAlpha"/>
<feOffset dy="4"/>
<feGaussianBlur stdDeviation="5"/>
<feColorMatrix type="matrix" values="0 0 0 0 0.0901961 0 0 0 0 0.0392157 0 0 0 0 0.396078 0 0 0 0.25 0"/>
<feBlend mode="normal" in2="BackgroundImageFix" result="effect1_dropShadow"/>
<feBlend mode="normal" in="SourceGraphic" in2="effect1_dropShadow" result="shape"/>
</filter>
<filter id="filter2_d" x="48" y="269" width="84" height="84" filterUnits="userSpaceOnUse" color-interpolation-filters="sRGB">
<feFlood flood-opacity="0" result="BackgroundImageFix"/>
<feColorMatrix in="SourceAlpha" type="matrix" values="0 0 0 0 0 0 0 0 0 0 0 0 0 0 0 0 0 0 127 0" result="hardAlpha"/>
<feOffset dy="4"/>
<feGaussianBlur stdDeviation="5"/>
<feColorMatrix type="matrix" values="0 0 0 0 0.0885677 0 0 0 0 0.0395834 0 0 0 0 0.395833 0 0 0 0.25 0"/>
<feBlend mode="normal" in2="BackgroundImageFix" result="effect1_dropShadow"/>
<feBlend mode="normal" in="SourceGraphic" in2="effect1_dropShadow" result="shape"/>
</filter>
<filter id="filter3_d" x="0" y="231" width="68" height="68" filterUnits="userSpaceOnUse" color-interpolation-filters="sRGB">
<feFlood flood-opacity="0" result="BackgroundImageFix"/>
<feColorMatrix in="SourceAlpha" type="matrix" values="0 0 0 0 0 0 0 0 0 0 0 0 0 0 0 0 0 0 127 0" result="hardAlpha"/>
<feOffset dy="4"/>
<feGaussianBlur stdDeviation="5"/>
<feColorMatrix type="matrix" values="0 0 0 0 0.0885677 0 0 0 0 0.0395834 0 0 0 0 0.395833 0 0 0 0.25 0"/>
<feBlend mode="normal" in2="BackgroundImageFix" result="effect1_dropShadow"/>
<feBlend mode="normal" in="SourceGraphic" in2="effect1_dropShadow" result="shape"/>
</filter>
<linearGradient id="paint0_linear" x1="269.642" y1="261.445" x2="211.608" y2="368.92" gradientUnits="userSpaceOnUse">
<stop stop-color="#276ED8"/>
<stop offset="0.9964" stop-color="#84B5FF"/>
</linearGradient>
<linearGradient id="paint1_linear" x1="218.999" y1="293" x2="242.499" y2="266" gradientUnits="userSpaceOnUse">
<stop stop-color="#84B5FF"/>
<stop offset="0.9964" stop-color="#276ED8"/>
</linearGradient>
<linearGradient id="paint2_linear" x1="265.257" y1="303.04" x2="289.094" y2="264.36" gradientUnits="userSpaceOnUse">
<stop stop-color="#84B5FF"/>
<stop offset="0.805159" stop-color="#276ED8"/>
</linearGradient>
<linearGradient id="paint3_linear" x1="214.753" y1="248.434" x2="209.547" y2="263.52" gradientUnits="userSpaceOnUse">
<stop stop-color="#AA80F9"/>
<stop offset="0.9964" stop-color="#6165D7"/>
</linearGradient>
<linearGradient id="paint4_linear" x1="257.397" y1="295.973" x2="261.563" y2="291.981" gradientUnits="userSpaceOnUse">
<stop stop-color="#AA80F9"/>
<stop offset="0.9964" stop-color="#6165D7"/>
</linearGradient>
<linearGradient id="paint5_linear" x1="265.305" y1="304.225" x2="269.471" y2="300.233" gradientUnits="userSpaceOnUse">
<stop stop-color="#AA80F9"/>
<stop offset="0.9964" stop-color="#6165D7"/>
</linearGradient>
<linearGradient id="paint6_linear" x1="265.322" y1="304.242" x2="269.487" y2="300.25" gradientUnits="userSpaceOnUse">
<stop stop-color="#AA80F9"/>
<stop offset="0.9964" stop-color="#6165D7"/>
</linearGradient>
<linearGradient id="paint7_linear" x1="257.433" y1="296.01" x2="261.599" y2="292.018" gradientUnits="userSpaceOnUse">
<stop stop-color="#AA80F9"/>
<stop offset="0.9964" stop-color="#6165D7"/>
</linearGradient>
<linearGradient id="paint8_linear" x1="180.999" y1="300.37" x2="197.565" y2="274.041" gradientUnits="userSpaceOnUse">
<stop stop-color="#84B5FF"/>
<stop offset="0.9964" stop-color="#276ED8"/>
</linearGradient>
<linearGradient id="paint9_linear" x1="169.405" y1="296.113" x2="175.086" y2="290.448" gradientUnits="userSpaceOnUse">
<stop stop-color="#AA80F9"/>
<stop offset="0.9964" stop-color="#6165D7"/>
</linearGradient>
<linearGradient id="paint10_linear" x1="179.306" y1="306.042" x2="184.987" y2="300.377" gradientUnits="userSpaceOnUse">
<stop stop-color="#AA80F9"/>
<stop offset="0.9964" stop-color="#6165D7"/>
</linearGradient>
<linearGradient id="paint11_linear" x1="179.161" y1="305.897" x2="184.842" y2="300.232" gradientUnits="userSpaceOnUse">
<stop stop-color="#AA80F9"/>
<stop offset="0.9964" stop-color="#6165D7"/>
</linearGradient>
<linearGradient id="paint12_linear" x1="169.626" y1="296.335" x2="175.307" y2="290.67" gradientUnits="userSpaceOnUse">
<stop stop-color="#AA80F9"/>
<stop offset="0.9964" stop-color="#6165D7"/>
</linearGradient>
<clipPath id="clip0">
<rect width="147" height="94" fill="white" transform="matrix(-1 0 0 1 312 263)"/>
</clipPath>
</defs>
</svg>
