<svg width="40" height="44" viewBox="0 0 40 44" fill="none" xmlns="http://www.w3.org/2000/svg">
<path d="M38.8096 28.2216C41.7034 15.2196 30.3113 3.40788 16.933 5.67533C9.6702 1.16873 -0.000183105 6.26133 -0.000183105 14.9016C-0.000183105 16.911 0.554266 18.7922 1.51831 20.4137C-1.17069 33.4458 10.3146 45.0877 23.6813 42.6654C33.1302 47.6614 43.5715 37.6976 38.8096 28.2216ZM26.0922 36.0628C22.5824 37.5062 16.8064 37.5145 13.3116 35.6849C8.3282 33.0279 7.44242 27.0463 11.7415 27.0463C14.9816 27.0463 13.9559 30.8237 17.2277 32.3636C18.7295 33.0579 21.958 33.1294 23.8344 31.8642C25.6876 30.6239 25.5178 28.6728 24.5104 27.7405C21.8414 25.2766 14.204 26.2555 10.7125 21.942C9.19567 20.0708 8.90929 16.7695 10.7741 14.3755C14.0242 10.1936 23.5614 9.93886 27.6623 13.097C31.4485 16.027 30.4262 19.916 27.3709 19.916C23.6963 19.916 25.6277 15.108 19.6952 15.108C15.3945 15.108 13.7029 18.1663 16.7315 19.6546C20.8374 21.694 31.3004 21.0131 31.3004 28.9824C31.292 32.2987 29.2591 34.7709 26.0922 36.0628Z" fill="white"/>
</svg>
